<svg xmlns="http://www.w3.org/2000/svg" viewBox="0 0 1200 750" role="img" aria-label="OPTOELECTRONIC MEMRISTOR">
<rect width="1200" height="750" fill="#f8f8f5"/>
<path d="M44 64H1156M44 674H1156" stroke="#cdd5d9" stroke-width="2"/>
<text x="48" y="42" font-family="Arial,sans-serif" font-size="18" font-weight="700" letter-spacing="2" fill="#15314c">OPTOELECTRONIC MEMRISTOR</text>
<text x="1152" y="42" text-anchor="end" font-family="Arial,sans-serif" font-size="16" fill="#667a87">TiO₂ interlayer · optical input</text>

<path d="M197 210l56 56M225 188l56 56M253 166l56 56" stroke="#9c4050" stroke-width="5"/><path d="m290 218 19 4-3-19" fill="none" stroke="#9c4050" stroke-width="4"/>
<text x="154" y="320" font-family="Arial,sans-serif" font-size="18" fill="#15314c">light</text>
<rect x="359" y="165" width="460" height="62" fill="#d0dbe0"/><rect x="359" y="230" width="460" height="178" fill="#e4edf2" stroke="#9fb3c0"/>
<rect x="359" y="410" width="460" height="32" fill="#a8becb"/><rect x="359" y="445" width="460" height="64" fill="#c7d4dc"/>
<text x="588" y="202" text-anchor="middle" font-family="Arial,sans-serif" font-size="18" fill="#15314c">upper contact</text>
<text x="588" y="324" text-anchor="middle" font-family="Arial,sans-serif" font-size="21" fill="#15314c">perovskite</text>
<text x="588" y="433" text-anchor="middle" font-family="Arial,sans-serif" font-size="17" fill="#15314c">TiO₂ interlayer</text>
<text x="588" y="482" text-anchor="middle" font-family="Arial,sans-serif" font-size="18" fill="#15314c">lower contact</text>
<g fill="none" stroke="#9c4050" stroke-width="2"><circle cx="437" cy="379" r="16"/><path d="m426 368 22 22m0-22-22 22"/></g><text x="855" y="332" font-family="Arial,sans-serif" font-size="18" fill="#15314c">interfacial trap control</text>
<path d="M837 360h230" stroke="#b2bec5" stroke-width="2"/><text x="855" y="403" font-family="Arial,sans-serif" font-size="18" fill="#15314c">memory + sensing</text>
<text x="601" y="606" text-anchor="middle" font-family="Arial,sans-serif" font-size="29" fill="#15314c">Interface engineering for low-power response</text>
<text x="48" y="711" font-family="Arial,sans-serif" font-size="15" fill="#667a87">Conceptual schematic · no experimental data</text>
</svg>
